Coordinates
version=1
nRows=21
nColumns=12
inDegrees=yes

Units are S.I. units (second, meters, Newtons, ...)
Angles are in degrees

endheader
time	SC_y	SC_z	SC_x	AC_y	AC_z	AC_x	GH_y	GH_z	GH_yy	EL_x	PS_y
       0.0               -28.5          37.46          10.53          31.11         -18.18          1.883           31.9          56.96          119.3          10.65          8.257
  0.006149               -28.5          37.46          10.53          31.11         -18.18           1.88          31.91          56.95          119.3          10.66          8.262
    0.0123               -28.5          37.45          10.54          31.11         -18.18          1.878          31.92          56.94          119.3          10.68          8.267
   0.01845               -28.5          37.45          10.55          31.12         -18.18          1.875          31.92          56.93          119.3           10.7          8.273
    0.0246              -28.51          37.44          10.56          31.12         -18.18          1.873          31.93          56.91          119.3          10.72          8.279
   0.03074              -28.51          37.44          10.56          31.12         -18.18           1.87          31.94           56.9          119.2          10.74          8.286
   0.03689              -28.51          37.43          10.57          31.12         -18.18          1.867          31.95          56.89          119.2          10.76          8.293
   0.04304              -28.51          37.42          10.58          31.12         -18.17          1.863          31.95          56.87          119.2          10.78            8.3
   0.04919              -28.51          37.42          10.59          31.12         -18.17           1.86          31.96          56.85          119.2           10.8          8.308
   0.05534              -28.52          37.41          10.61          31.13         -18.17          1.856          31.97          56.84          119.2          10.83          8.317
   0.06149              -28.52           37.4          10.62          31.13         -18.17          1.852          31.99          56.82          119.2          10.85          8.326
   0.06764              -28.52          37.39          10.63          31.13         -18.17          1.847           32.0           56.8          119.1          10.88          8.336
   0.07379              -28.52          37.38          10.65          31.13         -18.17          1.843          32.01          56.77          119.1          10.92          8.347
   0.07994              -28.53          37.37          10.66          31.13         -18.17          1.837          32.02          56.75          119.1          10.95          8.358
   0.08608              -28.53          37.36          10.68          31.14         -18.17          1.832          32.04          56.72          119.1          10.99          8.371
   0.09223              -28.53          37.35           10.7          31.14         -18.17          1.826          32.05           56.7          119.0          11.03          8.384
   0.09838              -28.54          37.34          10.72          31.14         -18.16          1.819          32.07          56.66          119.0          11.07          8.399
    0.1045              -28.54          37.32          10.74          31.15         -18.16          1.812          32.09          56.63          119.0          11.12          8.415
    0.1107              -28.55          37.31          10.76          31.15         -18.16          1.804          32.11          56.59          118.9          11.17          8.433
    0.1168              -28.55          37.29          10.79          31.16         -18.16          1.796          32.13          56.55          118.9          11.23          8.452
     0.123              -28.56          37.27          10.82          31.16         -18.16          1.786          32.16          56.51          118.8          11.29          8.473
